<svg width="25" height="25" viewBox="0 0 25 25" fill="none" xmlns="http://www.w3.org/2000/svg">
<path d="M11.4082 13.5918C11.8182 13.9818 11.8182 14.6218 11.4082 15.0118C11.0182 15.4018 10.3782 15.4018 9.98818 15.0118C8.03818 13.0618 8.03818 9.89183 9.98818 7.94183L13.5282 4.40183C15.4782 2.45183 18.6482 2.45183 20.5982 4.40183C22.5482 6.35183 22.5482 9.52183 20.5982 11.4718L19.1082 12.9618C19.1182 12.1418 18.9882 11.3218 18.7082 10.5418L19.1782 10.0618C20.3582 8.89183 20.3582 6.99183 19.1782 5.82183C18.0082 4.64183 16.1082 4.64183 14.9382 5.82183L11.4082 9.35183C10.2282 10.5218 10.2282 12.4218 11.4082 13.5918ZM14.2282 9.35183C14.6182 8.96183 15.2582 8.96183 15.6482 9.35183C17.5982 11.3018 17.5982 14.4718 15.6482 16.4218L12.1082 19.9618C10.1582 21.9118 6.98818 21.9118 5.03818 19.9618C3.08818 18.0118 3.08818 14.8418 5.03818 12.8918L6.52818 11.4018C6.51818 12.2218 6.64818 13.0418 6.92818 13.8318L6.45818 14.3018C5.27818 15.4718 5.27818 17.3718 6.45818 18.5418C7.62818 19.7218 9.52818 19.7218 10.6982 18.5418L14.2282 15.0118C15.4082 13.8418 15.4082 11.9418 14.2282 10.7718C13.8182 10.3818 13.8182 9.74183 14.2282 9.35183Z" fill="black"/>
</svg>
